
<svg width="908" height="646" viewBox="0 0 908 646" fill="none" xmlns="http://www.w3.org/2000/svg">
<path fill-rule="evenodd" clip-rule="evenodd" d="M173.477 506.66C175.368 512.332 177.83 516.474 180.275 520.193C183.661 525.342 187.212 529.38 190.947 532.84C198.987 540.286 207.916 545.495 224.486 548.936L615.906 639.619C645.737 645.814 664.807 641.126 684.691 616.884L941.144 304.208C961.028 279.965 955.976 256.289 945.922 225.753L805.768 -174.003C804.528 -177.722 803.529 -180.625 802.157 -183.212C799.094 -188.986 795.966 -192.996 791.335 -197.261C784.628 -203.437 777.964 -209.508 759.918 -213.256L377.255 -303.873C347.423 -310.068 316.194 -313.859 296.31 -289.616L39.2772 24.9111C19.3935 49.1539 23.0952 80.2194 33.15 110.756L173.477 506.66Z" fill="#2d2e76"/>
</svg>
