<svg xmlns="http://www.w3.org/2000/svg" width="135" height="155"><g transform="matrix(-1 0 0 1 135 0)" fill="#A3FFBF" fill-rule="nonzero" opacity=".364"><path d="M5 2c0 1.114-.914 2-2 2-1.114 0-2-.914-2-2 0-1.114.914-2 2-2 1.086 0 2 .914 2 2zm0 33a2 2 0 11-2-2c1.117-.025 2 .884 2 2z" opacity=".7"/><circle cx="3" cy="52" r="2" opacity=".4"/><path d="M5 85.011A1.998 1.998 0 012.989 87 1.998 1.998 0 011 84.989C1 83.894 1.894 83 3.011 83 4.106 83 5 83.894 5 85.011zM5 102c0 1.106-.894 2-2 2-1.106 0-2-.894-2-2 0-1.106.894-2 2-2 1.106 0 2 .915 2 2zm0 16c0 1.106-.894 2-2 2-1.106 0-2-.894-2-2 0-1.106.894-2 2-2 1.127 0 2.02.894 2 2z" opacity=".4"/><path d="M4 151.513c0 1.37-.893 2.487-2.01 2.487C.893 154 0 152.883 0 151.487 0 150.117.893 149 2.01 149c1.117 0 1.99 1.142 1.99 2.513zM5 15c0 1.114-.914 2-2 2-1.114 0-2-.914-2-2 0-1.114.914-2 2-2 1.114 0 2 .886 2 2zm15 20c0 1.117-.91 2-2 2-1.117 0-2-.91-2-2 0-1.117.91-2 2-2 1.117 0 2 .91 2 2z" opacity=".7"/><path d="M20 52c0 1.111-.889 2-2 2s-2-.889-2-2 .889-2 2-2 2 .889 2 2zm-1 33.011A1.998 1.998 0 0116.989 87 1.998 1.998 0 0115 84.989c0-1.095.894-1.989 2.011-1.989 1.095.022 1.989.916 1.989 2.011zM19 102c0 1.106-.894 2-2 2-1.106 0-2-.894-2-2 0-1.106.894-2 2-2 1.127 0 2.02.894 2 2zm0 16c0 1.106-.894 2-2 2-1.106 0-2-.894-2-2 0-1.106.894-2 2-2 1.106 0 2 .894 2 2z" opacity=".4"/><path d="M34 35c0 1.117-.91 2-2 2-1.117 0-2-.91-2-2 0-1.117.91-2 2-2 1.117 0 2 .883 2 2z" opacity=".7"/><ellipse cx="32.527" cy="51.857" opacity=".4" rx="1.915" ry="1.919" transform="rotate(-16.153 32.527 51.857)"/><path d="M34 69c0 1.106-.894 2-2 2-1.106 0-2-.894-2-2 0-1.106.894-2 2-2 1.106 0 2 .894 2 2zm1 16.011A1.998 1.998 0 0132.989 87 1.998 1.998 0 0131 84.989c0-1.095.894-1.989 2.011-1.989 1.117.022 2.01.916 1.989 2.011zM34 102c0 1.106-.894 2-2 2-1.106 0-2-.894-2-2 0-1.106.894-2 2-2 1.106 0 2 .894 2 2zm0 16c0 1.106-.894 2-2 2-1.106 0-2-.894-2-2 0-1.106.894-2 2-2 1.106 0 2 .915 2 2z" opacity=".4"/><path d="M34 135.513c0 1.37-.893 2.487-2.01 2.487-1.097 0-1.99-1.117-1.99-2.513 0-1.37.893-2.487 2.01-2.487 1.097 0 1.99 1.142 1.99 2.513z" opacity=".7"/><path d="M49 52c0 1.111-.889 2-2 2s-2-.889-2-2 .889-2 2-2 2 .889 2 2zm0 17c0 1.106-.894 2-2 2-1.106 0-2-.894-2-2 0-1.106.894-2 2-2 1.106 0 2 .894 2 2zm-1 49c0 1.106-.894 2-2 2-1.106 0-2-.894-2-2 0-1.106.894-2 2-2 1.106 0 2 .894 2 2z" opacity=".4"/><path d="M48 135.513c0 1.37-.893 2.487-2.01 2.487-1.097 0-1.99-1.117-1.99-2.513 0-1.37.893-2.487 2.01-2.487 1.097 0 1.99 1.117 1.99 2.513zm0 17c0 1.37-.893 2.487-2.01 2.487-1.097 0-1.99-1.117-1.99-2.513 0-1.37.893-2.487 2.01-2.487 1.097.025 1.99 1.142 1.99 2.513zM63 35c0 1.117-.91 2-2 2-1.117 0-2-.91-2-2 0-1.117.91-2 2-2 1.117 0 2 .91 2 2z" opacity=".7"/><path d="M63 52c0 1.111-.889 2-2 2s-2-.889-2-2 .889-2 2-2 2 .889 2 2zm0 17c0 1.106-.894 2-2 2-1.106 0-2-.894-2-2 0-1.106.894-2 2-2 1.106 0 2 .918 2 2zm0 17.011A1.998 1.998 0 0160.989 88 1.998 1.998 0 0159 85.989c0-1.095.894-1.989 2.011-1.989 1.095.022 1.989.916 1.989 2.011zM63 102c0 1.106-.894 2-2 2-1.106 0-2-.894-2-2 0-1.106.894-2 2-2 1.106 0 2 .894 2 2z" opacity=".4"/><path d="M63 135.513c0 1.37-.894 2.487-2.01 2.487-1.097 0-1.99-1.117-1.99-2.513 0-1.37.893-2.487 2.01-2.487 1.117.025 2.01 1.142 1.99 2.513z" opacity=".7"/><ellipse cx="60.872" cy="152.012" opacity=".7" rx="2.322" ry="2.317" transform="rotate(-76.114 60.872 152.012)"/><path d="M77 35a2 2 0 11-2-2c1.117-.025 2 .884 2 2z" opacity=".7"/><path d="M77 52c0 1.111-.889 2-2 2s-2-.889-2-2 .889-2 2-2 2 .914 2 2zm0 17c0 1.106-.894 2-2 2-1.106 0-2-.894-2-2 0-1.106.894-2 2-2 1.106 0 2 .894 2 2zm0 17.011A1.998 1.998 0 0174.989 88 1.998 1.998 0 0173 85.989c0-1.095.894-1.989 2.011-1.989 1.095 0 1.989.894 1.989 2.011zM77 102c0 1.106-.894 2-2 2-1.106 0-2-.894-2-2 0-1.106.894-2 2-2 1.128.021 2 .915 2 2zm0 17c0 1.106-.894 2-2 2-1.106 0-2-.894-2-2 0-1.106.894-2 2-2 1.127 0 2.02.894 2 2z" opacity=".4"/><ellipse cx="74.953" cy="135.37" opacity=".7" rx="2.322" ry="2.317" transform="rotate(-76.219 74.953 135.37)"/><ellipse cx="74.892" cy="152.047" opacity=".7" rx="2.322" ry="2.317" transform="rotate(-76.219 74.892 152.047)"/><path d="M92 35c0 1.117-.91 2-2 2-1.117 0-2-.91-2-2 0-1.117.91-2 2-2 1.09 0 2 .91 2 2z" opacity=".7"/><path d="M92 53c0 1.111-.889 2-2 2s-2-.889-2-2 .889-2 2-2 2 .889 2 2zm0 33.011A1.998 1.998 0 0189.989 88 1.998 1.998 0 0188 85.989c0-1.095.894-1.989 2.011-1.989A2.012 2.012 0 0192 86.011zM92 102c0 1.106-.894 2-2 2-1.106 0-2-.894-2-2 0-1.106.894-2 2-2 1.106 0 2 .894 2 2zm0 17c0 1.106-.894 2-2 2-1.106 0-2-.894-2-2 0-1.106.894-2 2-2 1.106 0 2 .894 2 2z" opacity=".4"/><path d="M92 152.513c0 1.37-.893 2.487-2.01 2.487-1.097 0-1.99-1.117-1.99-2.513 0-1.37.893-2.487 2.01-2.487 1.097 0 1.99 1.142 1.99 2.513zM107 35c0 1.117-.91 2-2 2-1.117 0-2-.91-2-2 0-1.117.91-2 2-2 1.09 0 2 .91 2 2z" opacity=".7"/><path d="M107 52c0 1.111-.889 2-2 2s-2-.889-2-2 .889-2 2-2c1.086 0 2 .889 2 2zm-1 17c0 1.106-.894 2-2 2-1.106 0-2-.894-2-2 0-1.106.894-2 2-2 1.106 0 2 .894 2 2zm0 17.011A1.998 1.998 0 01103.989 88 1.998 1.998 0 01102 85.989c0-1.095.894-1.989 2.011-1.989 1.095 0 1.989.894 1.989 2.011zM106 102c0 1.106-.894 2-2 2-1.106 0-2-.894-2-2 0-1.106.894-2 2-2 1.106 0 2 .894 2 2zm0 17c0 1.106-.894 2-2 2-1.106 0-2-.894-2-2 0-1.106.894-2 2-2 1.106 0 2 .894 2 2z" opacity=".4"/><path d="M106 135.513c0 1.37-.893 2.487-2.01 2.487-1.097 0-1.99-1.117-1.99-2.513 0-1.37.893-2.487 2.01-2.487 1.097 0 1.99 1.117 1.99 2.513zm0 17c0 1.37-.893 2.487-2.01 2.487-1.097 0-1.99-1.117-1.99-2.513 0-1.37.893-2.487 2.01-2.487 1.097.025 1.99 1.142 1.99 2.513zM120 35c0 1.117-.91 2-2 2-1.117 0-2-.91-2-2 0-1.117.91-2 2-2 1.117 0 2 .883 2 2z" opacity=".7"/><path d="M120 52c0 1.111-.889 2-2 2s-2-.889-2-2 .889-2 2-2 2 .889 2 2zm0 17c0 1.106-.894 2-2 2-1.106 0-2-.894-2-2 0-1.106.894-2 2-2 1.13 0 2.023.894 2 2zm1 17.011A1.998 1.998 0 01118.989 88 1.998 1.998 0 01117 85.989c0-1.095.894-1.989 2.011-1.989 1.095.022 1.989.916 1.989 2.011zM121 102c0 1.106-.894 2-2 2-1.106 0-2-.894-2-2 0-1.106.894-2 2-2 1.127 0 2.02.894 2 2zm0 17c0 1.106-.894 2-2 2-1.106 0-2-.894-2-2 0-1.106.894-2 2-2 1.106.021 2 .915 2 2z" opacity=".4"/><ellipse cx="118.098" cy="135.429" opacity=".7" rx="2.322" ry="2.317" transform="rotate(-76.219 118.098 135.429)"/><path d="M135 35a2 2 0 11-2-2c1.117-.025 2 .884 2 2z" opacity=".7"/><path d="M135 53c0 1.111-.889 2-2 2s-2-.889-2-2 .889-2 2-2 2 .914 2 2zm0 16c0 1.106-.894 2-2 2-1.106 0-2-.894-2-2 0-1.106.894-2 2-2 1.106 0 2 .894 2 2zm0 17.011A1.998 1.998 0 01132.989 88 1.998 1.998 0 01131 85.989c0-1.095.894-1.989 2.011-1.989 1.095 0 1.989.894 1.989 2.011zM135 102c0 1.106-.894 2-2 2-1.106 0-2-.894-2-2 0-1.106.894-2 2-2 1.106 0 2 .915 2 2zm0 17c0 1.106-.894 2-2 2-1.106 0-2-.894-2-2 0-1.106.894-2 2-2 1.106 0 2 .894 2 2z" opacity=".4"/><path d="M135 135.513c0 1.37-.893 2.487-2.01 2.487-1.097 0-1.99-1.117-1.99-2.513 0-1.37.893-2.487 2.01-2.487 1.097 0 1.99 1.117 1.99 2.513zm0 17c0 1.37-.893 2.487-2.01 2.487-1.097 0-1.99-1.117-1.99-2.513 0-1.37.893-2.487 2.01-2.487 1.097.025 1.99 1.142 1.99 2.513z" opacity=".7"/></g></svg>